<?xml version="1.0" encoding="utf-8"?>
<!-- Svg Vector Icons : http://www.onlinewebfonts.com/icon -->
<!DOCTYPE svg PUBLIC "-//W3C//DTD SVG 1.1//EN" "http://www.w3.org/Graphics/SVG/1.1/DTD/svg11.dtd">
<svg version="1.1" xmlns="http://www.w3.org/2000/svg" xmlns:xlink="http://www.w3.org/1999/xlink" x="0px" y="0px" viewBox="0 0 1000 1000" enable-background="new 0 0 1000 1000" xml:space="preserve">
<metadata> Svg Vector Icons : http://www.onlinewebfonts.com/icon </metadata>
<g><g transform="translate(0.000000,511.000000) scale(0.100000,-0.100000)"><path d="M1827.4,4964.2c-300.8-101.6-533.8-386.4-559.7-681.2l-6-79.7l386.4-6l386.4-4l93.6,59.8c141.4,89.6,308.7,141.4,501.9,153.4c340.6,21.9,619.5-79.7,850.5-308.7c163.3-161.3,249-308.7,300.8-513.9c49.8-195.2,49.8-358.5,0-553.7c-51.8-205.2-137.4-352.6-300.8-513.9c-358.5-354.6-922.2-418.3-1354.5-151.4l-93.6,55.8l-384.4-4l-386.4-6l-6-701.1l-4-703.1h398.4h398.4l93.6,57.8c253,153.4,607.5,197.2,892.4,107.6c555.7-173.3,888.4-756.9,756.9-1318.6C3620.1-866,2767.6-1226.5,2142.2-844.1l-93.6,57.8h-398.4h-398.4l4-701.1l6-703.1l386.4-6l386.4-4l93.6,59.7c151.4,97.6,306.7,143.4,527.8,153.4c340.6,17.9,591.6-77.7,828.6-312.7c159.4-157.4,245-304.7,296.8-509.9c49.8-195.2,49.8-358.5,0-553.7c-51.8-205.2-137.4-352.5-296.8-509.9c-235-235-488-328.7-828.6-312.7c-215.1,10-392.4,61.8-541.8,161.4l-79.7,51.8l-386.4-4l-386.4-6l8-79.7c25.9-300.8,270.9-593.6,573.7-687.2c127.5-39.8,181.2-39.8,2398.2-39.8h2268.8v991.9c0,1107.5,6,1159.3,131.5,1418.2c99.6,201.2,304.8,406.3,505.9,505.9c258.9,125.5,310.7,131.5,1430.2,131.5h999.9l-4,3031.6c-6,3406.1,6,3115.3-157.4,3360.3c-99.6,149.4-258.9,266.9-432.2,320.7C8858.8,5010,8791,5010,5406.8,5010l-3447.9-2L1827.4,4964.2z"/><path d="M2524.6,3896.5c-79.7-25.9-143.4-61.7-207.1-123.5l-59.8-55.8l-766.9-6c-739-6-768.9-8-846.5-47.8c-141.4-75.7-215.1-199.2-215.1-356.5s73.7-280.9,215.1-356.5c77.7-39.8,107.6-41.8,844.5-47.8l764.9-6l79.7-67.7c101.6-87.6,229.1-129.5,392.4-129.5c109.6,0,155.4,12,255,61.8c456.1,227.1,456.1,864.5,0,1091.5c-103.6,51.8-143.4,61.8-262.9,59.8C2640.1,3912.5,2552.5,3904.5,2524.6,3896.5z"/><path d="M2532.6,699.6c-97.6-31.9-203.2-93.6-255-151.4c-35.9-37.8-57.8-39.8-780.8-39.8c-820.6,0-830.6-2-958.1-125.5C498.9,343,461,279.3,443.1,215.6c-27.9-95.6-27.9-115.5,0-211.1C461-59.3,498.9-123,538.7-162.9c127.5-123.5,137.4-125.5,954.1-125.5h739l71.7-61.7c119.5-105.6,233.1-147.4,402.4-145.4c197.2,0,324.7,55.8,456.1,197.2c346.6,382.4,95.6,988-424.3,1017.8C2668,723.5,2580.4,715.5,2532.6,699.6z"/><path d="M7544.1-2427.7c-177.3-47.8-316.7-195.2-356.6-376.4c-14-65.7-19.9-298.8-15.9-647.4l6-541.8l796.7,796.7l796.7,796.7l-567.7-2C7821-2401.7,7605.9-2409.7,7544.1-2427.7z"/><path d="M2526.6-2497.4c-77.7-23.9-165.3-73.7-221.1-129.5l-53.8-49.8l-762.9-6c-737-6-766.9-8-844.5-47.8c-141.4-75.7-215.1-199.2-215.1-356.6c0-157.4,73.7-280.8,215.1-356.6c77.7-39.8,107.6-41.8,844.5-47.8l762.9-6l53.8-49.8c95.6-89.6,219.1-135.5,386.4-143.4c141.4-8,167.3-2,282.9,53.8c462.1,227.1,464.1,866.5,6,1095.5c-103.6,51.8-143.4,61.7-262.9,59.8C2640.1-2481.4,2554.5-2489.4,2526.6-2497.4z"/><path d="M8432.5-3674.6L7317.1-4790h768.8c715.1,0,780.8,2,900.3,39.8c167.3,51.8,334.6,177.3,432.2,324.7c143.4,215.1,145.4,229.1,155.4,1095.5c4,424.3,0,770.9-10,770.9C9555.9-2559.1,9046-3061.1,8432.5-3674.6z"/></g></g>
</svg>